<svg xmlns="http://www.w3.org/2000/svg" viewBox="0 0 64 64">
  <defs>
    <linearGradient id="g" x1="0" x2="1" y1="0" y2="1">
      <stop offset="0" stop-color="#CCD5AE"/>
      <stop offset="1" stop-color="#B2845A"/>
    </linearGradient>
  </defs>
  <rect width="64" height="64" rx="18" fill="#FDFBF7"/>
  <path d="M32 13c8.8 0 16 7.2 16 16 0 7.2-4.8 13.3-11.3 15.3 2.2 1.4 3.6 3.9 3.6 6.7H24.7c0-2.9 1.4-5.4 3.6-6.7C21.8 42.3 17 36.2 17 29c0-8.8 7.2-16 16-16Z" fill="url(#g)"/>
  <circle cx="26.8" cy="28" r="2.2" fill="#2D372B"/>
  <circle cx="37.2" cy="28" r="2.2" fill="#2D372B"/>
  <path d="M26 35.5c2.1 2.2 4.2 3.3 6 3.3s3.9-1.1 6-3.3" fill="none" stroke="#2D372B" stroke-width="2.4" stroke-linecap="round"/>
</svg>

